<?xml version="1.0" encoding="utf-8"?>
<!-- Generator: Adobe Illustrator 20.1.0, SVG Export Plug-In . SVG Version: 6.00 Build 0)  -->
<svg version="1.1" xmlns="http://www.w3.org/2000/svg" xmlns:xlink="http://www.w3.org/1999/xlink" x="0px" y="0px"
	 viewBox="0 0 200 200" style="enable-background:new 0 0 200 200;" xml:space="preserve">
<style type="text/css">
	.st0{fill:#F2F2F2;}
	.st1{fill:none;stroke:#F2F2F2;stroke-width:5;stroke-miterlimit:10;}
</style>
<g id="Layer_2">
</g>
<g id="Layer_1">
	<g>
		<path class="st0" d="M100.6,25c-41.1,0-74.4,33.3-74.4,74.4s33.3,74.4,74.4,74.4S175,140.5,175,99.4S141.7,25,100.6,25z
			 M100.6,150.9c-28.5,0-51.5-23.1-51.5-51.5c0-28.5,23.1-51.5,51.5-51.5c28.5,0,51.5,23.1,51.5,51.5
			C152.1,127.9,129.1,150.9,100.6,150.9z"/>
	</g>
	<line class="st1" x1="77" y1="75.8" x2="131" y2="75.8"/>
	<line class="st1" x1="60.1" y1="97.8" x2="141.1" y2="97.8"/>
	<line class="st1" x1="70" y1="119.8" x2="126" y2="119.8"/>
</g>
</svg>
